<?xml version="1.0" encoding="iso-8859-1"?>
<!-- Generator: Adobe Illustrator 16.0.0, SVG Export Plug-In . SVG Version: 6.00 Build 0)  -->
<!DOCTYPE svg PUBLIC "-//W3C//DTD SVG 1.1//EN" "http://www.w3.org/Graphics/SVG/1.1/DTD/svg11.dtd">
<svg version="1.1" id="Capa_1" xmlns="http://www.w3.org/2000/svg" xmlns:xlink="http://www.w3.org/1999/xlink" x="0px" y="0px"
	 width="246.471px" height="246.471px" viewBox="0 0 246.471 246.471" style="enable-background:new 0 0 246.471 246.471;"
	 xml:space="preserve">
<g>
	<g>
		<g id="Layer_5_11_">
			<g>
				<path d="M246.301,67.272c0.109-0.932,0.17-1.869,0.17-2.813c0-29.445-55.176-53.314-123.236-53.314
					C55.173,11.146,0,35.015,0,64.459v120.374h0.171c3.388,28.134,57.189,50.492,123.064,50.492
					c65.875,0,119.675-22.358,123.062-50.494h0.004v-0.007c0.109-0.932,0.17-1.868,0.17-2.812c0-0.943-0.061-1.881-0.17-2.813
					V67.272z M226.562,77.083c-1.364,2.621,0.115,7.682-2.342,10.106c-2.106,2.082-7.312,0.767-10.146,2.673
					c-2.494,1.677-3.086,6.986-6.09,8.506c-2.716,1.373-7.394-1.242-10.486-0.013c-2.854,1.134-4.412,6.253-7.559,7.253
					c-2.947,0.937-7.199-2.325-10.38-1.515c-3.012,0.766-5.168,5.668-8.368,6.313c-3.06,0.615-6.951-3.063-10.166-2.565
					c-3.095,0.479-5.688,5.165-8.91,5.527c-3.12,0.351-6.693-3.639-9.92-3.403c-3.141,0.23-6.093,4.701-9.318,4.816
					c-3.15,0.114-6.419-4.131-9.643-4.131c-3.223,0-6.489,4.245-9.64,4.131c-3.226-0.116-6.177-4.586-9.315-4.816
					c-3.226-0.236-6.799,3.753-9.918,3.403c-3.224-0.362-5.816-5.049-8.911-5.527c-3.214-0.497-7.109,3.181-10.168,2.565
					c-3.201-0.645-5.358-5.546-8.37-6.313c-3.18-0.809-7.431,2.452-10.377,1.516c-3.146-1-4.708-6.12-7.561-7.254
					c-3.095-1.229-7.774,1.385-10.49,0.012c-3.006-1.521-3.598-6.831-6.093-8.508c-2.836-1.907-8.037-0.592-10.146-2.674
					c-2.456-2.426-0.975-7.485-2.34-10.106c-1.54-2.958-6.41-5.031-6.41-8.176c0-3.146,4.87-5.22,6.411-8.178
					c1.365-2.621-0.115-7.681,2.341-10.106c2.108-2.082,7.312-0.766,10.146-2.673c2.494-1.677,3.084-6.986,6.09-8.506
					c2.714-1.373,7.392,1.242,10.485,0.013c2.853-1.134,4.413-6.254,7.56-7.254c2.946-0.936,7.197,2.325,10.377,1.516
					c3.012-0.767,5.169-5.669,8.37-6.313c3.059-0.616,6.953,3.062,10.167,2.565c3.095-0.479,5.688-5.165,8.911-5.527
					c3.119-0.351,6.692,3.639,9.918,3.402c3.14-0.229,6.092-4.7,9.318-4.816c3.152-0.113,6.42,4.131,9.644,4.131
					c3.223,0,6.489-4.245,9.641-4.131c3.226,0.116,6.176,4.586,9.312,4.816c3.228,0.236,6.802-3.753,9.921-3.403
					c3.223,0.362,5.814,5.049,8.909,5.527c3.216,0.497,7.108-3.181,10.168-2.565c3.201,0.644,5.355,5.546,8.369,6.313
					c3.181,0.81,7.431-2.452,10.377-1.516c3.146,1,4.709,6.12,7.563,7.254c3.094,1.229,7.772-1.385,10.488-0.011
					c3.006,1.52,3.598,6.83,6.092,8.507c2.836,1.906,8.039,0.591,10.146,2.673c2.457,2.426,0.976,7.485,2.34,10.106
					c1.541,2.958,6.412,5.031,6.412,8.176C232.975,72.05,228.104,74.125,226.562,77.083z"/>
				<path d="M117.939,45.235c2.913-4.156,7.678-4.156,10.592,0l1.172,1.673c2.912,4.156,9.438,7.273,14.502,6.927l10.576-0.724
					c5.062-0.346,6.058,2.077,2.209,5.385l-3.229,2.774c-3.848,3.309-3.848,8.722,0.001,12.03l3.228,2.773
					c3.851,3.308,2.855,5.731-2.207,5.385l-10.576-0.724c-5.063-0.346-11.59,2.771-14.502,6.928l-1.172,1.673
					c-2.914,4.156-7.679,4.156-10.592,0l-1.172-1.673c-2.913-4.157-9.438-7.274-14.502-6.928L91.69,81.458
					c-5.064,0.347-6.058-2.077-2.208-5.385l3.227-2.773c3.849-3.308,3.849-8.721,0-12.03l-3.228-2.774
					c-3.849-3.308-2.855-5.73,2.209-5.385l10.576,0.724c5.063,0.347,11.589-2.771,14.502-6.927L117.939,45.235z"/>
			</g>
		</g>
	</g>
</g>
<g>
</g>
<g>
</g>
<g>
</g>
<g>
</g>
<g>
</g>
<g>
</g>
<g>
</g>
<g>
</g>
<g>
</g>
<g>
</g>
<g>
</g>
<g>
</g>
<g>
</g>
<g>
</g>
<g>
</g>
</svg>
